/* XPM */
static char * AnimatedPlayer_xpm[] = {
"40 22 10 1",
" 	c None",
".	c #161616",
"+	c #121212",
"@	c #000000",
"#	c #FFEE00",
"$	c #CCBE00",
"%	c #C4C4C4",
"&	c #545454",
"*	c #414141",
"=	c #B8AB00",
"                             .+.        ",
"         .+.               @@###@@@     ",
"       @@###@@@           @@######@@    ",
"      @@######@@          @###@@@@@@    ",
"      @###@@@@@@          $##@%%%%%%@   ",
"      $##@%%%%%%@        @$#@@%%%%%%@@  ",
"     @$#@@%%%%%%@@     @@@$#@@&%%%%%%@  ",
"   @@@$#@@&%%%%%%@    @##@$##@&&&&&&@@  ",
"  @##@$##@&&&&&&@@    @##@$##@@&&&&@@   ",
"  @##@$##@@&&&&@@     @$$@$###@@@@@#@   ",
"  @$$@$###@@@@@#@     @$$@$#########@   ",
"  @$$@$#########@     @$$@$$########@   ",
"  @$$@$$########@     @$$@$$#######$@   ",
"  @$$@$$#######$@     @$$@$$$######$@   ",
"  @$$@$$$######$@     @$$@$$$$$$$$$$@   ",
"  @$$@$$$$$$$$$$@     @$$@$$$$$$$$$$@   ",
"  @$$@$$$$$$$$$$@      @@@$$$$@@@$$$@   ",
"   @@@$$$$@@@@$$@        @$$$$@*@$$$@   ",
"     @$$$$@*@$$@         @=$$$@ @$$$@   ",
"     @=$$$@ @$$@          @$$$@ @$$@@   ",
"      @$$$@ @$$@          @@$$@ @$$@@   ",
"      @@@@@ @@@@           @@@@ @@@@    "};
