/* XPM */
static char *_380f2707c6e43e3ba3fd17bcb49e46aYahRnBPupGXAiiTZ[] = {
/* columns rows colors chars-per-pixel */
"64 64 80 1 ",
"  c #4D4C2B",
". c #504F2D",
"X c #51502D",
"o c #565530",
"O c #585731",
"+ c #5D5C34",
"@ c #615F36",
"# c #6C662B",
"$ c #736C2E",
"% c #636236",
"& c #656439",
"* c #69673A",
"= c #6B6A3C",
"- c #716F3E",
"; c #777133",
": c #7C7632",
"> c #7F7833",
", c #74733E",
"< c #7D7739",
"1 c #767542",
"2 c #787743",
"3 c #7C7B44",
"4 c #837C34",
"5 c #817C3A",
"6 c #807E45",
"7 c #817F48",
"8 c #878036",
"9 c #8A8237",
"0 c #86803D",
"q c #8C853A",
"w c #8F8839",
"e c #958D3C",
"r c #848246",
"t c #8F8941",
"y c #85834A",
"u c #88874B",
"i c #8C8B4D",
"p c #928B42",
"a c #908F4D",
"s c #979044",
"d c #9A9346",
"f c #93914E",
"g c #9F9848",
"h c #8F8D50",
"j c #918F51",
"k c #959352",
"l c #989751",
"z c #989655",
"x c #999755",
"c c #9A9852",
"v c #9C9A53",
"b c #9D9C53",
"n c #9A9856",
"m c #9D9B54",
"M c #9F9F55",
"N c #9D9B58",
"B c #9F9D59",
"V c #A19A49",
"C c #A09F55",
"Z c #A09E59",
"A c #A2A056",
"S c #A4A257",
"D c #A3A15B",
"F c #A5A358",
"G c #A5A458",
"H c #A6A559",
"J c #A4A25C",
"K c #A5A45D",
"L c #A8A659",
"P c #A8A65E",
"I c #ABA95B",
"U c #ACAA5B",
"Y c #ACAB5C",
"T c #AEAC5D",
"R c #B1AF5E",
"E c #B2B05F",
"W c #B3B15F",
"Q c #B3B160",
"! c #B5B360",
"~ c #B6B461",
/* pixels */
"PPPPPPPPPPPPPPPPPPiiiPPkZPBkPPPhn7yPkkPPPPPPPnDPkPPPPPZxPDPPPPPP",
"P~~~~~~PP~~~~~~PP!ffM~HjP~AC~~~inrl~vC~PP~~~~CEpx~~~~~LBP~~~~E~P",
"P~~~~~~PP~~PP~~PPIilI~fxP~cxP~~ik3H~cA~PP~~PPm~PN~~~~~CPP~~PPY~P",
"P~~~~~~PP~PPPP~PPS3c~MiJP!iBPP~iu6T~lH~PP~PPBh~PZ~~~~LFPP~PPPn~P",
"P~~~~~~PP~JPPP~PPb3A~ucPPIiPPPEi3u~~lI~PP~Ppxh~PK~~~EMRPP~PPpx~P",
"P~~~~~~PPTJ~~P~PPf3ECrYPPAh~~PIi2f~~cL~PP~P~Mj~PP~~~CC~PP~P~Ek~P",
"P~~~~~~PPH~PP~~PPri~ui~PPmCPP~Hu2S~!lI~PP~~PhC~PP~~IlT~PJ!~PZM~x",
"P~~~~~~PJAP~~P~PP6mLrI~PPcm~~PAy7Y~QiYTPP~P~lx~PP~~cM~~PN~P~LjFj",
"P~~~~~~PnA~~~~~PKrLiu~~PKv!~~!M3i~~HuH~PP~~~lY~PP~HlRE~px~~~SflN",
"P~~~~~~PkH~~~~~PZaArM!~PZC~~~Hv6n~~fu!~PP~~Rc!~PP~cC~T~Kk~~TCrMP",
"P~~PP~~KiT~~~~~Pnlc2Z~~PNH~~~mlyD~l2x~~PP~~Uv~~PPHlKZY~Bk~~Iur!P",
"P~PPPP~ni~~~~~~pxf1iPPQPmR~~IlaiPH1iKP~PP~~LA~~PPvxpxD~xk~~vrf~P",
"P~PPPP~jj~~~~~~Pi33PPPRPB~~~Aluxnu3PPP~PP~~LL~~PnMPPkK~jk~TuuA~P",
"P~P~~P~ix~~~~~~n3rB~~BEPD~~IMiiiiux~~P~PP~~LR~~PkYBYmP~ix~fuvH~P",
"P~~PP!TiJ~~~~~Fi3c~PPS~PP~~Mvuryyl~PP~~PP~~U~~~ZnTIxk~!iBEuvMI~P",
"P~P~TPFjP~~~~AlxuTP~Tk~PP~Rlcu3ihFP~~P~PP~~R~~~BPAKvAPYiKFaHMR~P",
"P~~!L~CxP~~~AlHPh~~~AA~PP~Alf6rkj~~~~~QPP~~~~~~JkA~lI~HiDLlIA~~K",
"P~~HU~MDP~~AcL~JB~~~vL~PP~cf6rlkN~~~~~IPP~~~~~~DuIIl!~AkBElTH~~B",
"P~RM~!APP~AkZ~~KP~~TlE~PPYl23ffxP~~~~!HPP~~PP~~ui~Ac~~MxPIlPB~~K",
"P~CA~TIPPLjKPP~PP~~Ac~~PPCu1liaJP~~~~LHPP~PJPPR3x~mC~~vZPHiPDP~P",
"PRcT~Y!PZCZPPP~PP~~cM~~PPc32JicKP~~~~vIPP~PZPPa3P~lL~TMKPAjPPP~P",
"PMv~~Y~KDFF~~P~PP~~lI~~PZl2i!jHZP~~~TfRPP~PL~PriPEi~~HMDPCx~~P~P",
"JlH~~U~PPM~PP~~PP~Al~~~pxf3kPATNP~R~AiYPP~~xPl6DJCfE!fAPPCLPP~RD",
"kl~~~H~PBMP~~P~DP~ll~~~pxr1~~xExPYR~cfIPP~DC~2rJxFiIff!KPAD~~nLP",
"iF~~TF~PkM~~~~~BPYfc~~~px2i~~LYxZH~RllIPPRLmF3MknMifiS~ZPF~!AFEP",
"h~~~HF~PhF~~~~RmPSfA~~~Jx,H~~TLkkT~FlcIPPHLci3ckDirccI~nPIYcA~IP",
"x~~PkH~JiY~~~~LmPclkP~~Jy,~~~!F7x~~jjlIPZAHl33cKyruki!~xKCaA~HYP",
"P~PJhm~ni~~~!~CBDakkPP~P,u~~~~f3K~PikiIPkFAr-fYu2viuhP~kkll~TC~P",
"P~PZiZ~kh~~~E~vDxikkPP~D=A~~~IryPEZ7BiYJhRC=,HM1jHu3kP~3ucH~MH~K",
"P~ZFlP~jx~~Y!RcPiuiA~P~u1Q~!~aukB~krEiTxh~u%lAuiBA3rIPM2nMYLc~~n",
"P~Hki~~hB~~FRCuxykfnP~S3u~~YAukuD~iyJlEix!,-HllNkC,7PMcinv~cA~Ah",
"PEkCvPRjP~IlkuiZilyY~Zcyk~~FufuiPF3ARiLiJf-iLcmpyf%cAxTijMFl!FCx",
"PFMmC~IxPAuullCniki!~vMin~~iufixKliARcmjmuulLlRN33=lI~YiiLlAIcSx",
"PlMvL~HiifuHHlHkkii~HlTkD~Yr3vMnklMSRllNiMfHvAIx1,,E~RI6iSl!cAYx",
"DuAmRHfjnAvxklRknuf~lC~jP~c%2~MniHcLLavNkHaxkRvB&3i~TYI2kcSjh!ID",
"n6IlSFHDPlxkih~kKulAl~!hKT2+jPAhjRlRAfHknMhxZiAxOrlEM~L2jvxiZKEP",
"i3LM~IHPBlJkikExPuvcH~EjKk-=NPMiBHlRClIkhljniu~7ofHfI~m3kFixPP~P",
"y3EHAF~PkcPcfnTBPufM~~Qiil=6~PlkPCcAcFlBylkMrn~1+lil~~l6xMk~~P~P",
"2rAcF~~PiS!uiTTKPifR~TM2jC,yPRcPPvAlMMmj2cC1u~I=@ruT~~lixv!PP~~P",
"12lH~~IxuLnllDRPPuM!Cvl3Zv=v~nIPPfMfHivy3u3r!PC=O3A~~TMxkYP~~P~P",
"&rL~LAYx2cEll~~PPivlvTluZf3R~L~PJiMalac2=36cEQM+Xf~~~IIxm~~~~~~P",
"=lIMMR~13HRuH~~PnufA~TMhkiu~R~~Zmiluufl*%,u~LLc %I~T~Y!NP~~~~~~J",
"yufkP~i-iTlu!~~xiiRPP~Mjial~~~Emjif2yfi+%3T!FAa u~IKP!RPP~~~~~~j",
"23kPpy,jhCic~TMjNLPPPPviiMA~~~FZyi1-yuro&c~HFf,%KInPPP~PP~~~~~mh",
"yfDpy-iKuffCLCLPPYPPPPcykSI~~UCNui113y3.1~~Mff3uJMJPPP~PP~~~~ClZ",
"ZlDf67HD2aMcI~~PPEP~~PcyZYR~~MCjyu33ru3ox~RicuuNkAP~~P~PP~~~HlLP",
"Kck1yc~i1CvI~~~PP~~PP~fjPT~~LcAi3uu@iv*%P~MuHrMkh~~PP~~PP~~TcS~P",
"Pu2clxTy3CCT~~~PP~P~~PfBP!~~clMh1c1,Ri*1P~icLuTix~P~~P~PP~~MM~~P",
"k3cAl~myhvA~~~~PP~~~~~lPP~~HlcAy3S,uHf,uPIfICivhP~~~~~~PP~Sl~~~n",
"uuRlSHlljcF~~~~PP~~~~!APP~~cllH3kCraCM,kPAl~filZP~~~~~~PPYlL~~~i",
"hmSc~MMxklLPP~~PP~~~~QTPP~LihcF3JLrcSH3NPMMPuuAPP~~~~~~PPACPP~Hu",
"mIcHHLSxxlBPPP~PP~~~~~~PP~jjikikPArMESuDPcNK3y~PP~~~~~~PDMxPPJvB",
"PAM!IYAxnlJPPP~PPT~~~~~PPTjkikiDPcuS~HaPZlPB2k~PP~~~~~~pxcPPPBTP",
"PAIT~SAnNcP~~P~PJY~~~~~PPSxcfiAPPliR!IlPnmPliN~PP~~~~~~ZiLP~~K~P",
"DH~~~mFxnm~PP~~PnR~~~~~PPALh6AIPNff~~LMPkHEyuI~PP~~~~~~jj~~PP~~P",
"B!~~IuvmBAP~~P~Kk~~~~~!PZYkuuKQpxiM~~LAPiTBMfD~PP~~~~~HiZ~P~~P~P",
"DRAvliEKBH~~~~~xx~~~~~RPZEvrf~~pyiF~~LLPuE!ll~~JP~~~~~ckP~~~~~~P",
"jlcLCl~PZY~~~~~jN~~~~!YPPIfrI~~Z7vT~~IRJy~~iM~!ZP~~~~AvPP~~~~~~P",
"jL~Bjv~PDE~~~~LiP~~PPIYPPMia~~Riyv~PPT~xy~RiH~LJP~~PJmYDD~~~~~~P",
"P~Bnjx~PJT~~~~mkP~PPpxTPPluc~~MujMPPPJ~uu~FfERAPP~PpxxYnP~~~~~~P",
"VdtV0sVVVsVVVV0pVVVVV0dVp05pVV<00pVVVVV;qV00VppVVVVgpdtVVVVVVVVV",
"e49e4eeee9eee9:eeeeee;ee4::ee4$e:weeeew#we:4e4eeeeewq4weeeeeeeee",
"4>ee4eeee4eee44eeeeew$e94:4ee$$9:eeeee>#ee:e44eeeeeq>9eeeeeeeeee",
"$9ew9eeew4eee>weeeee4$e94;8e4$444eeeee$$e84e:9weeee:4eeeeeeeeeee"
};
