/* XPM */
static char * Enemy_xpm[] = {
"100 110 9 1",
" 	c None",
".	c #342218",
"+	c #7D3418",
"@	c #900000",
"#	c #333333",
"$	c #C4C4C4",
"%	c #545454",
"&	c #414141",
"*	c #403E32",
"                                        .....+++++.....                                             ",
"                                        .....+++++.....                                             ",
"                                        .....+++++.....                                             ",
"                                        .....+++++.....                                             ",
"                                        .....+++++.....                                             ",
"                              @@@@@@@@@@@@@@@@@@@@@@@@@@@@@@@@@@@@@@@@                              ",
"                              @@@@@@@@@@@@@@@@@@@@@@@@@@@@@@@@@@@@@@@@                              ",
"                              @@@@@@@@@@@@@@@@@@@@@@@@@@@@@@@@@@@@@@@@                              ",
"                              @@@@@@@@@@@@@@@@@@@@@@@@@@@@@@@@@@@@@@@@                              ",
"                              @@@@@@@@@@@@@@@@@@@@@@@@@@@@@@@@@@@@@@@@                              ",
"                         @@@@@@@@@@@@@@@@@@@@@@@@@@@@@@@@@@@@@@@@@@@@@@@@@@                         ",
"                         @@@@@@@@@@@@@@@@@@@@@@@@@@@@@@@@@@@@@@@@@@@@@@@@@@                         ",
"                         @@@@@@@@@@@@@@@@@@@@@@@@@@@@@@@@@@@@@@@@@@@@@@@@@@                         ",
"                         @@@@@@@@@@@@@@@@@@@@@@@@@@@@@@@@@@@@@@@@@@@@@@@@@@                         ",
"                         @@@@@@@@@@@@@@@@@@@@@@@@@@@@@@@@@@@@@@@@@@@@@@@@@@                         ",
"                         @@@@@@@@@@@@@@@@@@@@@@@@@@@@@@@@@@@@@@@@@@@@@@@@@@                         ",
"                         @@@@@@@@@@@@@@@@@@@@@@@@@@@@@@@@@@@@@@@@@@@@@@@@@@                         ",
"                         @@@@@@@@@@@@@@@@@@@@@@@@@@@@@@@@@@@@@@@@@@@@@@@@@@                         ",
"                         @@@@@@@@@@@@@@@@@@@@@@@@@@@@@@@@@@@@@@@@@@@@@@@@@@                         ",
"                         @@@@@@@@@@@@@@@@@@@@@@@@@@@@@@@@@@@@@@@@@@@@@@@@@@                         ",
"                         #####@@@@@@@@@@@@@@@$$$$$$$$$$$$$$$$$$$$$$$$$$$$$$@@@@@                    ",
"                         #####@@@@@@@@@@@@@@@$$$$$$$$$$$$$$$$$$$$$$$$$$$$$$@@@@@                    ",
"                         #####@@@@@@@@@@@@@@@$$$$$$$$$$$$$$$$$$$$$$$$$$$$$$@@@@@                    ",
"                         #####@@@@@@@@@@@@@@@$$$$$$$$$$$$$$$$$$$$$$$$$$$$$$@@@@@                    ",
"                         #####@@@@@@@@@@@@@@@$$$$$$$$$$$$$$$$$$$$$$$$$$$$$$@@@@@                    ",
"                    @@@@@#####@@@@@@@@@@@@@@@$$$$$$$$$$$$$$$$$$$$$$$$$$$$$$@@@@@@@@@@               ",
"                    @@@@@#####@@@@@@@@@@@@@@@$$$$$$$$$$$$$$$$$$$$$$$$$$$$$$@@@@@@@@@@               ",
"                    @@@@@#####@@@@@@@@@@@@@@@$$$$$$$$$$$$$$$$$$$$$$$$$$$$$$@@@@@@@@@@               ",
"                    @@@@@#####@@@@@@@@@@@@@@@$$$$$$$$$$$$$$$$$$$$$$$$$$$$$$@@@@@@@@@@               ",
"                    @@@@@#####@@@@@@@@@@@@@@@$$$$$$$$$$$$$$$$$$$$$$$$$$$$$$@@@@@@@@@@               ",
"     @@@@@@@@@@@@@@@@@@@@#####@@@@@@@@@@@@@@@%%%%%$$$$$$$$$$$$$$$$$$$$$$$$$$$$$$@@@@@               ",
"     @@@@@@@@@@@@@@@@@@@@#####@@@@@@@@@@@@@@@%%%%%$$$$$$$$$$$$$$$$$$$$$$$$$$$$$$@@@@@               ",
"     @@@@@@@@@@@@@@@@@@@@#####@@@@@@@@@@@@@@@%%%%%$$$$$$$$$$$$$$$$$$$$$$$$$$$$$$@@@@@               ",
"     @@@@@@@@@@@@@@@@@@@@#####@@@@@@@@@@@@@@@%%%%%$$$$$$$$$$$$$$$$$$$$$$$$$$$$$$@@@@@               ",
"     @@@@@@@@@@@@@@@@@@@@#####@@@@@@@@@@@@@@@%%%%%$$$$$$$$$$$$$$$$$$$$$$$$$$$$$$@@@@@               ",
"     @@@@@@@@@@@@@@@@@@@@#####@@@@@@@@@@@@@@@%%%%%%%%%%%%%%%%%%%%%%%%%%%%%%@@@@@@@@@@               ",
"     @@@@@@@@@@@@@@@@@@@@#####@@@@@@@@@@@@@@@%%%%%%%%%%%%%%%%%%%%%%%%%%%%%%@@@@@@@@@@               ",
"     @@@@@@@@@@@@@@@@@@@@#####@@@@@@@@@@@@@@@%%%%%%%%%%%%%%%%%%%%%%%%%%%%%%@@@@@@@@@@               ",
"     @@@@@@@@@@@@@@@@@@@@#####@@@@@@@@@@@@@@@%%%%%%%%%%%%%%%%%%%%%%%%%%%%%%@@@@@@@@@@               ",
"     @@@@@@@@@@@@@@@@@@@@#####@@@@@@@@@@@@@@@%%%%%%%%%%%%%%%%%%%%%%%%%%%%%%@@@@@@@@@@               ",
"     @@@@@@@@@@@@@@@@@@@@#####@@@@@@@@@@@@@@@@@@@@%%%%%%%%%%%%%%%%%%%%@@@@@@@@@@                    ",
"     @@@@@@@@@@@@@@@@@@@@#####@@@@@@@@@@@@@@@@@@@@%%%%%%%%%%%%%%%%%%%%@@@@@@@@@@                    ",
"     @@@@@@@@@@@@@@@@@@@@#####@@@@@@@@@@@@@@@@@@@@%%%%%%%%%%%%%%%%%%%%@@@@@@@@@@                    ",
"     @@@@@@@@@@@@@@@@@@@@#####@@@@@@@@@@@@@@@@@@@@%%%%%%%%%%%%%%%%%%%%@@@@@@@@@@                    ",
"     @@@@@@@@@@@@@@@@@@@@#####@@@@@@@@@@@@@@@@@@@@%%%%%%%%%%%%%%%%%%%%@@@@@@@@@@                    ",
"     @@@@@##########@@@@@#####@@@@@@@@@@@@@@@@@@@@@@@@@@@@@@@@@@@@@@@@@@@@@@@@@@                    ",
"     @@@@@##########@@@@@#####@@@@@@@@@@@@@@@@@@@@@@@@@@@@@@@@@@@@@@@@@@@@@@@@@@                    ",
"     @@@@@##########@@@@@#####@@@@@@@@@@@@@@@@@@@@@@@@@@@@@@@@@@@@@@@@@@@@@@@@@@                    ",
"     @@@@@##########@@@@@#####@@@@@@@@@@@@@@@@@@@@@@@@@@@@@@@@@@@@@@@@@@@@@@@@@@                    ",
"     @@@@@##########@@@@@#####@@@@@@@@@@@@@@@@@@@@@@@@@@@@@@@@@@@@@@@@@@@@@@@@@@                    ",
"     @@@@@##########@@@@@#####@@@@@@@@@@@@@@@@@@@@@@@@@@@@@@@@@@@@@@@@@@@@@@@@@@                    ",
"     @@@@@##########@@@@@#####@@@@@@@@@@@@@@@@@@@@@@@@@@@@@@@@@@@@@@@@@@@@@@@@@@                    ",
"     @@@@@##########@@@@@#####@@@@@@@@@@@@@@@@@@@@@@@@@@@@@@@@@@@@@@@@@@@@@@@@@@                    ",
"     @@@@@##########@@@@@#####@@@@@@@@@@@@@@@@@@@@@@@@@@@@@@@@@@@@@@@@@@@@@@@@@@                    ",
"     @@@@@##########@@@@@#####@@@@@@@@@@@@@@@@@@@@@@@@@@@@@@@@@@@@@@@@@@@@@@@@@@                    ",
"     @@@@@##########@@@@@##########@@@@@@@@@@@@@@@@@@@@@@@@@@@@@@@@@@@@@@@@@@@@@                    ",
"     @@@@@##########@@@@@##########@@@@@@@@@@@@@@@@@@@@@@@@@@@@@@@@@@@@@@@@@@@@@                    ",
"     @@@@@##########@@@@@##########@@@@@@@@@@@@@@@@@@@@@@@@@@@@@@@@@@@@@@@@@@@@@                    ",
"     @@@@@##########@@@@@##########@@@@@@@@@@@@@@@@@@@@@@@@@@@@@@@@@@@@@@@@@@@@@                    ",
"     @@@@@##########@@@@@##########@@@@@@@@@@@@@@@@@@@@@@@@@@@@@@@@@@@@@@@@@@@@@                    ",
"     @@@@@##########@@@@@##########@@@@@@@@@@@@@@@@@@@@@@@@@@@@@@@@@@@#####@@@@@                    ",
"     @@@@@##########@@@@@##########@@@@@@@@@@@@@@@@@@@@@@@@@@@@@@@@@@@#####@@@@@                    ",
"     @@@@@##########@@@@@##########@@@@@@@@@@@@@@@@@@@@@@@@@@@@@@@@@@@#####@@@@@                    ",
"     @@@@@##########@@@@@##########@@@@@@@@@@@@@@@@@@@@@@@@@@@@@@@@@@@#####@@@@@                    ",
"     @@@@@##########@@@@@##########@@@@@@@@@@@@@@@@@@@@@@@@@@@@@@@@@@@#####@@@@@                    ",
"     @@@@@##########@@@@@###############@@@@@@@@@@@@@@@@@@@@@@@@@@@@@@#####@@@@@                    ",
"     @@@@@##########@@@@@###############@@@@@@@@@@@@@@@@@@@@@@@@@@@@@@#####@@@@@                    ",
"     @@@@@##########@@@@@###############@@@@@@@@@@@@@@@@@@@@@@@@@@@@@@#####@@@@@                    ",
"     @@@@@##########@@@@@###############@@@@@@@@@@@@@@@@@@@@@@@@@@@@@@#####@@@@@                    ",
"     @@@@@##########@@@@@###############@@@@@@@@@@@@@@@@@@@@@@@@@@@@@@#####@@@@@                    ",
"     @@@@@##########@@@@@##################################################@@@@@                    ",
"     @@@@@##########@@@@@##################################################@@@@@                    ",
"     @@@@@##########@@@@@##################################################@@@@@                    ",
"     @@@@@##########@@@@@##################################################@@@@@                    ",
"     @@@@@##########@@@@@##################################################@@@@@                    ",
"     @@@@@##########@@@@@##################################################@@@@@                    ",
"     @@@@@##########@@@@@##################################################@@@@@                    ",
"     @@@@@##########@@@@@##################################################@@@@@                    ",
"     @@@@@##########@@@@@##################################################@@@@@                    ",
"     @@@@@##########@@@@@##################################################@@@@@                    ",
"          @@@@@@@@@@@@@@@####################@@@@@@@@@@@@@@@@@@@@##########@@@@@                    ",
"          @@@@@@@@@@@@@@@####################@@@@@@@@@@@@@@@@@@@@##########@@@@@                    ",
"          @@@@@@@@@@@@@@@####################@@@@@@@@@@@@@@@@@@@@##########@@@@@                    ",
"          @@@@@@@@@@@@@@@####################@@@@@@@@@@@@@@@@@@@@##########@@@@@                    ",
"          @@@@@@@@@@@@@@@####################@@@@@@@@@@@@@@@@@@@@##########@@@@@                    ",
"                    @@@@@####################@@@@@&&&&&@@@@@##########@@@@@                         ",
"                    @@@@@####################@@@@@&&&&&@@@@@##########@@@@@                         ",
"                    @@@@@####################@@@@@&&&&&@@@@@##########@@@@@                         ",
"                    @@@@@####################@@@@@&&&&&@@@@@##########@@@@@                         ",
"                    @@@@@####################@@@@@&&&&&@@@@@##########@@@@@                         ",
"                    @@@@@*****###############@@@@@     @@@@@##########@@@@@                         ",
"                    @@@@@*****###############@@@@@     @@@@@##########@@@@@                         ",
"                    @@@@@*****###############@@@@@     @@@@@##########@@@@@                         ",
"                    @@@@@*****###############@@@@@     @@@@@##########@@@@@                         ",
"                    @@@@@*****###############@@@@@     @@@@@##########@@@@@                         ",
"                    @@@@@@@@@@###############@@@@@     @@@@@##########@@@@@                         ",
"                    @@@@@@@@@@###############@@@@@     @@@@@##########@@@@@                         ",
"                    @@@@@@@@@@###############@@@@@     @@@@@##########@@@@@                         ",
"                    @@@@@@@@@@###############@@@@@     @@@@@##########@@@@@                         ",
"                    @@@@@@@@@@###############@@@@@     @@@@@##########@@@@@                         ",
"                         @@@@@@@@@@@@@@@@@@@@@@@@@     @@@@@@@@@@@@@@@@@@@@                         ",
"                         @@@@@@@@@@@@@@@@@@@@@@@@@     @@@@@@@@@@@@@@@@@@@@                         ",
"                         @@@@@@@@@@@@@@@@@@@@@@@@@     @@@@@@@@@@@@@@@@@@@@                         ",
"                         @@@@@@@@@@@@@@@@@@@@@@@@@     @@@@@@@@@@@@@@@@@@@@                         ",
"                         @@@@@@@@@@@@@@@@@@@@@@@@@     @@@@@@@@@@@@@@@@@@@@                         ",
"                                                                                                    ",
"                                                                                                    ",
"                                                                                                    ",
"                                                                                                    ",
"                                                                                                    "};
