/* XPM */
static char *_98e19029a7642fedb6deeab3f254569JzcQTqXjMKjMsagq[] = {
/* columns rows colors chars-per-pixel */
"64 64 102 2 ",
"   c #0B0B0A",
".  c #0C0C0A",
"X  c #0F0E0C",
"o  c #13130E",
"O  c #14130E",
"+  c #14140F",
"@  c #151410",
"#  c #161610",
"$  c #181711",
"%  c #1B1B11",
"&  c #1C1C13",
"*  c #1D1D13",
"=  c #201F15",
"-  c #212116",
";  c #242417",
":  c #242318",
">  c #252518",
",  c #2B2A1B",
"<  c #2C2B1B",
"1  c #2D2C1B",
"2  c #2E2E1C",
"3  c #30301D",
"4  c #363521",
"5  c #3A3A22",
"6  c #3D3C23",
"7  c #3E3E24",
"8  c #403F25",
"9  c #434127",
"0  c #444327",
"q  c #424228",
"w  c #474729",
"e  c #494829",
"r  c #4C4B2B",
"t  c #4C4A2C",
"y  c #4D4D2C",
"u  c #514F2D",
"i  c #51502E",
"p  c #55542F",
"a  c #555430",
"s  c #575632",
"d  c #5B5A32",
"f  c #5C5C33",
"g  c #5B5A35",
"h  c #5D5B34",
"j  c #605F35",
"k  c #616036",
"l  c #62623A",
"z  c #676539",
"x  c #69673B",
"c  c #696839",
"v  c #6A693D",
"b  c #6E6C3C",
"n  c #71703E",
"m  c #74723F",
"M  c #777641",
"N  c #777644",
"B  c #787741",
"V  c #7B7943",
"C  c #797845",
"Z  c #7F7D45",
"A  c #817F47",
"S  c #968E3C",
"D  c #828147",
"F  c #818049",
"G  c #858348",
"H  c #858448",
"J  c #89874A",
"K  c #8A884B",
"L  c #8B894E",
"P  c #8D8B4F",
"I  c #8E8D4D",
"U  c #908E4E",
"Y  c #92904F",
"T  c #8D8C50",
"R  c #959350",
"E  c #959454",
"W  c #989652",
"Q  c #989755",
"!  c #9B9953",
"~  c #9C9A53",
"^  c #9A9857",
"/  c #9D9B54",
"(  c #9C9C54",
")  c #9F9D59",
"_  c #A19A49",
"`  c #A09E55",
"'  c #A19F5A",
"]  c #A2A057",
"[  c #A3A158",
"{  c #A5A358",
"}  c #A6A459",
"|  c #A7A55E",
" . c #A9A75B",
".. c #A8A65E",
"X. c #AAA95B",
"o. c #ADAB5C",
"O. c #AFAD5D",
"+. c #B0AE5E",
"@. c #B3B15F",
"#. c #B3B160",
"$. c #B4B260",
"%. c #B6B461",
/* pixels */
"................................................................................................................................",
"..%.%.%.%.%.%.....%.%.%.%.%.%.....%.%.%.%.%.%.....%.%.%.%.%.%.....%.%.%.%.%.%.....%.%.%.%.%.%.....%.%.%.%.%.%.....%.%.%.%.%.%...",
"..%.%.%.%.%.%.....%.%.....%.%.....%.%.%.%.%.%.....%.%.....%.%.....%.%.%.%.%.%.....%.%.....%.%.....%.%.%.%.%.%.....%.%.....%.%...",
"..%.%.%.%.%.%.....%.........%.....%.%.%.%.%.%.....%.........%.....%.%.%.%.%.%.....%.........%.....%.%.%.%.%.%.....%.........%...",
"..%.%.%.%.%.%.....%.........%.....%.%.%.%.%.%.....%.........%.....%.%.%.%.%.%.....%.........%.....%.%.%.%.%.%.....%.........%...",
"..%.%.%.%.%.%.....%...%.%...%.....%.%.%.%.%.%.....%...%.%...%.....%.%.%.%.%.%.....%...%.%...%.....%.%.%.%.%.%.....%...%.%...%...",
"..%.%.%.%.%.%.....%.%.....%.%.....%.%.%.%.%.%.....%.%.....%.%.....%.%.%.%.%.%.....%.%.....%.%.....%.%.%.%.%.%.....%.%.....%.%...",
"..%.%.%.%.%.%.....%...%.%...%.....%.%.%.%.%.%.....%...%.%...%.....%.%.%.%.%.%.....%...%.%...%.....%.%.%.%.%.%.....%...%.%...%...",
"..%.%.%.%.%.%.....%.%.%.%.%.%.....%.%.%.%.%.%.....%.%.%.%.%.%.....%.%.%.%.%.%.....%.%.%.%.%.%.....%.%.%.%.%.%.....%.%.%.%.%.%...",
"..%.%.%.%.%.%.....%.%.%.%.%.%.....%.%.%.%.%.%.....%.%.%.%.%.%.....%.%.%.%.%.%.....%.%.%.%.%.%.....%.%.%.%.%.%.....%.%.%.%.%.%...",
"..%.%.....%.%.....%.%.%.%.%.%.....%.%.....%.%.....%.%.%.%.%.%.....%.%.....%.%.....%.%.%.%.%.%.....%.%.....%.%.....%.%.%.%.%.%...",
"..%.........%.....%.%.%.%.%.%.....%.........%.....%.%.%.%.%.%.....%.........%.....%.%.%.%.%.%.....%.........%.....%.%.%.%.%.%...",
"..%.........%.....%.%.%.%.%.%.....%.........%.....%.%.%.%.%.%.....%.........%.....%.%.%.%.%.%.....%.........%.....%.%.%.%.%.%...",
"..%...%.%...%.....%.%.%.%.%.%.....%...%.%...%.....%.%.%.%.%.%.....%...%.%...%.....%.%.%.%.%.%.....%...%.%...%.....%.%.%.%.%.%...",
"..%.%.....%.%.....%.%.%.%.%.%.....%.%.....%.%.....%.%.%.%.%.%.....%.%.....%.%.....%.%.%.%.%.%.....%.%.....%.%.....%.%.%.%.%.%...",
"..%...%.%...%.....%.%.%.%.%.%.....%...%.%...%.....%.%.%.%.%.%.....%...%.%...%.....%.%.%.%.%.%.....%...%.%...%.....%.%.%.%.%.%...",
"..%.%.%.%.%.%.....%.%.%.%.%.%.....%.%.%.%.%.%.....%.%.%.%.%.%.....%.%.%.%.%.%.....%.%.%.%.%.%.....%.%.%.%.%.%.....%.%.%.%.%.%...",
"..%.%.%.%.%.%.....%.%.%.%.%.%.....%.%.%.%.%.%.....%.%.%.%.%.%.....%.%.%.%.%.%.....%.%.%.%.%.%.....%.%.%.%.%.%.....%.%.%.%.%.%...",
"..%.%.%.%.%.%.....%.%.....%.%.....%.%.%.%.%.%.....%.%.....%.%.....%.%.%.%.%.%.....%.%.....%.%.....%.%.%.%.%.%.....%.%.....%.%...",
"..%.%.%.%.%.%.....%.........%.....%.%.%.%.%.%.....%.........%.....%.%.%.%.%.%.....%.........%.....%.%.%.%.%.%.....%.........%...",
"..%.%.%.%.%.%.....%.........%.....%.%.%.%.%.%.....%.........%.....%.%.H + & m E ..%.........%.....%.%.%.%.%.%.....%.........%...",
"..%.%.%.%.%.%.....%...%.%...%.....%.%.%.%.%.%.....%...%.%...%.....%.%.3         % #...%.%...%.....%.%.%.%.%.%.....%...%.%...%...",
"..%.%.%.%.%.%.....%.%...| %.%.....%.%.%.%.%.%.....%.%.....%.%.....%.$.Z o           & ....%.%.....%.%.%.%.%.%.....%.%.....%.%...",
"..%.%.%.%.%.%.....%...%.%...%.....%.%.%.%.%.%.....%...%.%...%.....%.%.$.O.( p         > K ..%.....%.%.%.%.%.%.....%...%.%...%...",
"..%.%.%.%.%.%.....%.%.%.%.%.%.....%.%.%.%.%.%.....%.%.%.%.%.%...| %.%.%.%.%.%.F >         3 Z | ..%.%.%.%.%.%.....%.%.%.%.%.%...",
"..%.%.%.%.%.%.....%.%.%.%.X.{ Q E ] B n ] ] %.....} ] %.%.%.%.....%.%.%.%.%.%.....P           # s %.%.%.%.%.%.....%.%.%.%.%.%...",
"..%.%.....%.%.....%.%.%.,                             $ o   O & > w 1 l s 0 D ^ ..%.D 2         h %.%.....%.%.....%.%.%.%.%.%...",
"..%.........%.....%.%.$.-                                                     . , Y %.$.O.>     # %.........%.....%.%.%.%.%.%...",
"..%.........%.....%.%.%.#.D j 9 - 3 v L - X # o X                                 d $.%.%.t       ] ........%.....%.%.%.%.%.%...",
"..%...%.%...%.....%.%.%.%.%.%.....%...%.%...%.....%.%.%.%.%.$...) +.' A V - + > 5 R %.%.c       = %...%.%...%.....%.%.%.%.%.%...",
"..%.%.....%.%.....%.%.%.%.%.%.....%.%.....%.%.....%.%.%.%.%.%.....%.%.....%.%.....%.%.%.o     . ..%.%.....%.%.....%.%.%.%.%.%...",
"..%...%.%...%.....%.%.%.%.%.%.....$.| %.%...%.....%.%.%.%.%.%.| ..%...%.%...%.....%.%.0       h ..%...%.%...%.....%.%.%.%.%.%...",
"..%.%.%.%.%.%.....%.%.%.%.%.%.....%.%.%.%.%.%.....%.%.%.%.%.%.....%.%.%.%.%.%.....%.$..     > ....%.%.%.%.%.%.....%.%.%.%.%.%...",
"..%.%.%.%.%.%.....%.%.%.%.%.%.....%.%.%.%.%.%.....%.%.%.%.%.%.....%.%.%.%.%.%.....X.+     X #.....%.%.%.%.%.%.....%.%.%.%.%.%...",
"..%.%.%.%.%.%.....%.%.....%.%.....%.%.%.%.%.%.....%.%.....%.%.....%.%.%.%.%.%.....,       9 $.....%.%.%.%.%.%.....%.%.....%.%...",
"..%.%.%.%.%.%.....%.........%.....%.~ > 5 D k y s K ' ......%.....%.%.%.%.%.%.....,     + C %.....%.%.%.%.%.%.....%.........%...",
"..%.%.%.%.%.%.....%.........%.....%.;                 x ....%.....%.%.%.%.%.%...| s - j | ..%..... ./ %.%.%.%.....%.........%...",
"..%.%.%.%.%.%.....%...%.%...%...| [ .                 I %...%.....%.%.%.%.%.U % , $...+.H 9 > o     . V %.%.%.....%...%.%...%...",
"..%.%.%.%.%.%.....%.%.....%.%...| H       B ` Q F { $.....%.%.....%.%.%.%.%.3     u 2                 d %.%.%.....%.%.....%.%...",
"..%.%.%.%.%.%.....%...%.%...%...| +.      ( %.....%...%.%...%.....%.H b  .O.9 .   ,               + M %.%.%.%.....%...%.%...%...",
"..%.%.%.%.%.%.....%.%.%.%.%.%.....}       J $.| ..%.%.%.A m %...| e     5 %.%.) ' $.i + #       z %.%.%.%.%.%.....%.%.%.%.%.%...",
"..%.%.%.%.%.%.....%.%.%.%.%.%.....U       X X & 7 %.%.! .     v q       ; %.%.4 % H %.%.f     X ..%.%.%.%.%.%.....%.%.%.%.%.%...",
"..%.%.....%.%.....%.%.%.%.%.%.....`             . @.%.R X             , ..%.!     o %.%.H       ^ %.%.....%.%.....%.%.%.%.%.%...",
"..%.........%.....%.%.%.%.%.%.....H       # X % L %.%.$.G X           T ....x       M %.V       E %.........%.....%.%.%.%.%.%...",
"..%.........%.....%.%.%.%.%.%.....D       C %.....%.%.%.%.`         X ......y     X %.%.B       ..%.........%.....%.%.%.%.%.%...",
"..%...%.%...%.....%.%.%.%.%.%.....n       v %.....%.%.%.%.1           . C ..z     . $.%.L       ..%...%.%...%.....%.%.%.%.%.%...",
"..%.%.....%.%.....%.%.%.%.%.%.....D     . } %.....[ / %.d       .       : %.5     . o.$.H       E %.%.....%.%.....%.%.%.%.%.%...",
"..%...%.%...%.....%.%.%.%.%.%.....W +     o             +     X g +.- o 8 P z     o %.%.G       N %...%.%...%.....%.%.%.%.%.%...",
"..%.%.%.%.%.%.....%.%.%.%.%.%.....$.c .                 # y 7 L | $.%.%.%.%.H # o n %.%.} < . + G %.%.%.%.%.%.....%.%.%.%.%.%...",
"..%.%.%.%.%.%.....%.%.%.%.%.%.....%.%.r .       o 3 e % 6 $.%.....%.%.%.%.%.%.....%.%.%.%.%.%.....%.%.%.%.%.%.....%.%.%.%.%.%...",
"..%.%.%.%.%.%.....%.%.....%.%.....%.%.%.%.%.%.....%.%.....%.%.....%.%.%.%.%.%.....%.%.....%.%.....%.%.%.%.%.%.....%.%.....%.%...",
"..%.%.%.%.%.%.....%.........%.....%.%.%.%.%.%.....%.........%.....%.%.%.%.%.%.....%.........%.....%.%.%.%.%.%.....%.........%...",
"..%.%.%.%.%.%.....%.........%.....%.%.%.%.%.%.....%.........%.....%.%.%.%.%.%.....%.........%.....%.%.%.%.%.%.....%.........%...",
"..%.%.%.%.%.%.....%...%.%...%.....%.%.%.%.%.%.....%...%.%...%.....%.%.%.%.%.%.....%...%.%...%.....%.%.%.%.%.%.....%...%.%...%...",
"..%.%.%.%.%.%.....%.%.....%.%.....%.%.%.%.%.%.....%.%.....%.%.....%.%.%.%.%.%.....%.%.....%.%.....%.%.%.%.%.%.....%.%.....%.%...",
"..%.%.%.%.%.%.....%...%.%...%.....%.%.%.%.%.%.....%...%.%...%.....%.%.%.%.%.%.....%...%.%...%.....%.%.%.%.%.%.....%...%.%...%...",
"..%.%.%.%.%.%.....%.%.%.%.%.%.....%.%.%.%.%.%.....%.%.%.%.%.%.....%.%.%.%.%.%.....%.%.%.%.%.%.....%.%.%.%.%.%.....%.%.%.%.%.%...",
"..%.%.%.%.%.%.....%.%.%.%.%.%.....%.%.%.%.%.%.....%.%.%.%.%.%.....%.%.%.%.%.%.....%.%.%.%.%.%.....%.%.%.%.%.%.....%.%.%.%.%.%...",
"..%.%.....%.%.....%.%.%.%.%.%.....%.%.....%.%.....%.%.%.%.%.%.....%.%.....%.%.....%.%.%.%.%.%.....%.%.....%.%.....%.%.%.%.%.%...",
"..%.........%.....%.%.%.%.%.%.....%.........%.....%.%.%.%.%.%.....%.........%.....%.%.%.%.%.%.....%.........%.....%.%.%.%.%.%...",
"_ _ _ _ _ _ _ _ _ _ _ _ _ _ _ _ _ _ _ _ _ _ _ _ _ _ _ _ _ _ _ _ _ _ _ _ _ _ _ _ _ _ _ _ _ _ _ _ _ _ _ _ _ _ _ _ _ _ _ _ _ _ _ _ ",
"S S S S S S S S S S S S S S S S S S S S S S S S S S S S S S S S S S S S S S S S S S S S S S S S S S S S S S S S S S S S S S S S ",
"S S S S S S S S S S S S S S S S S S S S S S S S S S S S S S S S S S S S S S S S S S S S S S S S S S S S S S S S S S S S S S S S ",
"S S S S S S S S S S S S S S S S S S S S S S S S S S S S S S S S S S S S S S S S S S S S S S S S S S S S S S S S S S S S S S S S "
};
