/* XPM */
static char *d8f021474aed4266f3b06345e6b7612dSksPMTLum3Li3M9M[] = {
/* columns rows colors chars-per-pixel */
"64 64 133 2 ",
"   c #020202",
".  c #080701",
"X  c #090906",
"o  c #0C0C0C",
"O  c #100F0C",
"+  c #131205",
"@  c #13130D",
"#  c #1C1B0D",
"$  c #141413",
"%  c #1B1B13",
"&  c #1C1C1A",
"*  c #212114",
"=  c #282717",
"-  c #2B2B17",
";  c #23231C",
":  c #282719",
">  c #2B2B1C",
",  c #33321D",
"<  c #242423",
"1  c #2B2B25",
"2  c #2B2B2A",
"3  c #302E23",
"4  c #302F28",
"5  c #343322",
"6  c #3A3A24",
"7  c #34342B",
"8  c #3B3B2B",
"9  c #333332",
"0  c #3C3B33",
"q  c #3C3C3B",
"w  c #403E22",
"e  c #423F2F",
"r  c #424127",
"t  c #4D4B23",
"y  c #45442A",
"u  c #48472C",
"i  c #4B4B2D",
"p  c #53522D",
"a  c #58572F",
"s  c #5A592D",
"d  c #434336",
"f  c #4C4C33",
"g  c #424139",
"h  c #504F35",
"j  c #555434",
"k  c #585736",
"l  c #5C5B35",
"z  c #545439",
"x  c #59593A",
"c  c #635F36",
"v  c #615F3A",
"b  c #6F692F",
"n  c #656337",
"m  c #686837",
"M  c #63623C",
"N  c #686539",
"B  c #6B6A3C",
"V  c #706E3A",
"C  c #7C7731",
"Z  c #74723D",
"A  c #424240",
"S  c #4A4A41",
"D  c #4B4B4B",
"F  c #5E5C40",
"G  c #636244",
"H  c #696742",
"J  c #6C6B42",
"K  c #6F6E4B",
"L  c #757343",
"P  c #797745",
"I  c #7C7A45",
"U  c #747249",
"Y  c #78774C",
"T  c #7D7B49",
"R  c #6C6C6C",
"E  c gray44",
"W  c #817B3E",
"Q  c #807F45",
"!  c #807F49",
"~  c #817F50",
"^  c #968E3C",
"/  c #828145",
"(  c #85834B",
")  c #888748",
"_  c #8B8A4B",
"`  c #908F4D",
"'  c #93914F",
"]  c #9C9548",
"[  c #838151",
"{  c #8D8B54",
"}  c #898758",
"|  c #908E52",
" . c #918F54",
".. c #929153",
"X. c #959351",
"o. c #949253",
"O. c #979553",
"+. c #929056",
"@. c #989753",
"#. c #999755",
"$. c #9C9A55",
"%. c #9F9D56",
"&. c #949259",
"*. c #9A9859",
"=. c #9D9B58",
"-. c #9F9D5A",
";. c #A19A49",
":. c #A19F54",
">. c #A19F59",
",. c #A2A053",
"<. c #A2A056",
"1. c #A5A357",
"2. c #A2A058",
"3. c #A4A25C",
"4. c #A6A45D",
"5. c #A9A75B",
"6. c #A8A65E",
"7. c #ABA95A",
"8. c #ABA95C",
"9. c #AEAC5C",
"0. c #AFAD5F",
"q. c #B0AF5F",
"w. c #B2B05F",
"e. c #B4B25F",
"r. c #9F9D60",
"t. c #A5A460",
"y. c #A8A660",
"u. c #ABA963",
"i. c #AFAD60",
"p. c #B0AE60",
"a. c #B5B361",
"s. c #B6B461",
"d. c #B5B365",
/* pixels */
"6.6.6.6.6.6.6.6.6.6.6.6.6.6.6.6.6.6.6.6.6.6.6.6.6.6.6.6.6.6.6.6.6.6.6.6.6.6.6.6.6.6.6.6.6.6.6.6.6.6.6.6.6.6.6.6.6.6.6.6.6.6.6.6.",
"6.s.s.s.s.s.s.6.6.s.s.s.s.s.s.6.6.s.s.s.s.s.s.6.6.s.s.s.s.s.s.6.6.s.s.s.s.s.s.6.6.s.s.s.s.s.s.6.6.s.s.s.s.s.s.6.6.s.s.s.s.s.s.6.",
"6.s.s.s.s.s.s.6.6.s.s.6.6.s.s.6.6.s.s.s.s.s.s.6.6.s.s.6.6.s.s.6.6.s.s.s.s.s.s.6.6.s.s.6.6.s.s.6.6.s.s.s.s.s.s.6.6.s.s.6.6.s.s.6.",
"6.s.s.s.s.s.s.6.6.s.6.6.6.6.s.6.6.s.s.s.s.s.s.6.6.s.6.6.6.6.s.6.6.s.s.s.s.s.s.6.6.s.6.6.6.6.s.6.6.s.s.s.s.s.s.6.6.s.6.6.6.6.s.6.",
"6.s.s.s.s.s.s.6.6.s.6.6.6.6.s.6.6.s.s.s.s.s.s.6.6.s.6.6.6.6.s.6.6.s.s.s.s.s.s.6.6.s.6.6.6.6.s.6.6.s.s.s.s.s.s.6.6.s.6.6.6.6.s.6.",
"6.s.s.s.s.s.s.6.6.s.6.s.s.6.s.6.6.s.s.s.s.s.s.6.6.s.6.s.0.-.s.6.6.s.s.s.s.s.s.6.6.s.6.s.s.6.s.6.6.s.s.s.s.s.s.6.6.s.6.s.s.6.s.6.",
"6.s.s.s.s.s.s.6.6.s.s.6.6.s.s.6.6.s.s.s.s.s.s.6.6.s.s.6.6.j 7 $       & u.a.s.6.6.s.s.6.6.s.s.6.6.s.s.s.s.s.s.6.6.s.s.6.6.s.s.6.",
"6.s.s.s.s.s.s.6.6.s.6.s.s.6.s.6.6.s.s.s.s.s.s.6.6.s.6.>.A $ 9       X   X & a.6.6.s.6.s.s.6.s.6.6.s.s.s.s.s.s.6.6.s.6.s.s.6.s.6.",
"6.s.s.s.s.s.s.6.6.s.s.s.s.s.s.6.6.s.s.s.s.s.s.6.6.s.s.7 $ R E               + 6.6.s.s.s.s.s.s.6.6.s.s.s.s.s.s.6.6.s.s.s.s.s.s.6.",
"6.s.s.s.s.s.s.6.6.s.s.s.s.s.s.6.6.s.s.s.s.s.s.6.6.s.1.; $   X       o         > 6.s.s.s.s.s.s.6.6.s.s.s.s.s.s.6.6.s.s.s.s.s.s.6.",
"6.s.s.6.6.s.s.6.6.s.s.s.s.s.s.6.6.s.s.6.6.s.s.6.6.e.l %   X                   t.6.s.s.s.s.s.s.6.6.s.s.6.6.s.s.6.6.s.s.s.s.s.s.6.",
"6.s.6.6.6.6.s.6.6.s.s.s.s.s.s.6.6.s.6.6.6.6.s.6.6.s.y     D                 < $ 4.s.s.s.s.s.s.6.6.s.6.6.6.6.s.6.6.s.s.s.s.s.s.6.",
"6.s.6.6.6.6.s.6.6.s.s.s.s.s.s.6.6.s.6.6.6.6.s.6.6.s.s.j o X X               & U 6.s.s.s.s.s.s.6.6.s.6.6.6.6.s.6.6.s.s.s.s.s.s.6.",
"6.s.6.s.s.6.s.6.6.s.s.s.s.s.s.6.6.s.6.s.s.6.s.6.6.s.s.a.+                 X 8 4.6.s.s.s.s.s.s.6.6.s.6.s.s.6.s.6.6.s.s.s.s.s.s.6.",
"6.s.s.6.6.s.s.6.6.s.s.s.s.s.s.6.6.s.s.6.6.s.s.6.6.s.a.a.i               < h a.6.6.s.s.s.s.s.s.6.6.s.s.6.6.s.s.6.6.s.s.s.s.s.s.6.",
"6.s.6.s.s.6.s.6.6.s.s.s.s.s.s.6.6.s.6.s.s.6.s.6.6.s.s.s.s.o X         9 < H a.6.6.s.s.s.s.s.s.6.6.s.6.s.s.6.s.6.6.s.s.s.s.s.s.6.",
"6.s.s.s.s.s.s.6.6.s.s.s.s.s.s.6.6.s.s.s.s.s.s.6.6.L K % l U       X 7 1 8 5 & 4.6.s.s.s.s.s.s.6.6.s.s.s.s.s.s.6.6.s.s.s.s.s.s.6.",
"6.s.s.s.s.s.s.6.6.s.s.s.s.s.s.6.6.s.s.s.s.s.s.6.6.s.< M B   X y.  i 1 u M   @ X 6.s.s.s.s.s.s.6.6.s.s.s.s.s.s.6.6.s.s.s.s.s.s.6.",
"6.s.s.s.s.s.s.6.6.s.s.6.6.s.s.6.6.s.s.s.s.s.s.6.6.|   U 6.s.a.+ M   M o _ s.f ; 3.s.s.6.6.s.s.6.6.s.s.s.s.s.s.6.6.s.s.6.6.s.s.6.",
"6.s.s.s.s.s.s.6.6.s.6.6.6.6.s.6.6.s.s.s.s.s.s.6.6.f   6.6.6.s.Y $ 2 a.s.s.a.s.o   s.6.6.6.6.s.6.6.s.s.s.s.s.s.6.6.s.6.6.6.6.s.6.",
"6.s.s.s.s.s.s.6.6.s.6.6.6.6.s.6.6.s.s.s.s.s.s.6.6.7 X 6.6.6.s.f f $ s.s.s.s.2.  X s.6.6.6.6.s.6.6.s.s.s.s.s.s.6.6.s.6.6.6.6.s.6.",
"6.s.s.s.s.s.s.6.6.s.6.s.s.6.s.6.6.s.s.s.s.s.s.6.4.&   s.s.6.8.5 ; 3 a.s.s.s.j q & s.6.s.s.6.s.6.6.s.s.s.s.s.s.6.6.s.6.s.s.6.s.6.",
"6.s.s.s.s.s.s.6.6.s.s.6.6.s.s.6.6.s.s.s.s.s.s.6.>.X X 6.6.s.q.B , > 5 a.s.s.5.o q X.s.6.6.s.s.6.6.s.s.s.s.s.s.6.6.s.s.6.6.s.s.6.",
"6.s.s.s.s.s.s.6.6.s.6.s.s.6.s.6.6.s.s.s.s.s.s.6.$ 9 j s.s.6.X.@ r $ % L s.s.s.@ 0 7.6.s.s.6.s.6.6.s.s.s.s.s.s.6.6.s.6.s.s.6.s.6.",
"6.s.s.s.s.s.s.6.6.s.s.s.s.s.s.6.6.s.s.s.s.s.s...S $ ( s.s.s.s.u 5 @ : ' s.s.s.8 r a.s.s.s.s.s.6.6.s.s.s.s.s.s.6.6.s.s.s.s.s.s.6.",
"6.s.s.s.s.s.s.6.6.s.s.s.s.s.s.6.6.s.s.s.s.s.s.4.z   s.s.s.s.s.6.5 7 s.s.s.s.s.j X 0.s.s.s.s.s.6.6.s.s.s.s.s.s.6.6.s.s.s.s.s.s.6.",
"6.s.s.6.6.s.s.6.6.s.s.s.s.s.s.6.6.s.s.6.6.s.s...% 0 s.s.s.s.s.4.8 & s.6.6.s.s.3.  ; s.s.s.s.s.6.6.s.s.6.6.s.s.6.6.s.s.s.s.s.s.6.",
"6.s.6.6.6.6.s.6.6.s.s.s.s.s.s.6.6.s.6.6.6.6.s.6.q X s.s.s.s.s.6.P X f #.6.6.s.6.x ; q.s.s.s.s.6.6.s.6.6.6.6.s.6.6.s.s.s.s.s.s.6.",
"6.s.6.6.6.6.s.6.6.s.s.s.s.s.s.6.6.s.6.6.6.6.s.L @ / s.s.s.s.s.6.| 8 d G 6.6.s.6.U   q.s.s.s.s.6.6.s.6.6.6.6.s.6.6.s.s.s.s.s.s.6.",
"6.s.6.s.s.6.s.6.6.s.s.s.s.s.s.6.6.s.6.s.s.6.s._ 9 4 s.s.s.s.s.6.U L 0 y s.6.s.6.-   q.s.s.s.s.6.6.s.6.s.s.6.s.6.6.s.s.s.s.s.s.6.",
"6.s.s.6.6.s.s.6.6.s.s.s.s.s.s.6.6.s.s.6.6.s.s.*.< $ s.s.s.s.s.4.k 6 5 y =.s.s.6.T   N 8.s.s.s.6.6.s.s.6.6.s.s.6.6.s.s.s.s.s.s.6.",
"6.s.6.s.s.6.s.6.6.s.s.s.s.s.s.6.6.s.6.s.s.6.a.& < 5 s.s.s.s.s.#.w * F s.s.6.s.6.=.< G s.s.s.s.6.6.s.6.s.s.6.s.6.6.s.s.s.s.s.s.6.",
"6.s.s.s.s.s.s.6.6.s.s.s.s.s.s.6.6.s.s.s.s.s.s.% ; X.s.s.s.s.s.4.@ X y %.s.s.s.6.M r 5 s.s.s.s.6.6.s.s.s.s.s.s.6.6.s.s.s.s.s.s.6.",
"6.s.s.s.s.s.s.6.6.s.s.s.s.s.s.6.6.s.s.s.s.s.s.% X s.s.s.s.s.s.6.> X ,.s.s.s.s.6.O.% < | s.s.s.6.6.s.s.s.s.s.s.6.6.s.s.s.s.s.s.6.",
"6.s.s.s.s.s.s.6.6.s.s.6.6.s.s.6.6.s.s.s.s.s.s.M o _ s.6.6.s.-.N 6   6 s.s.s.s.6.6.a.  r.6.s.s.6.6.s.s.s.s.s.s.6.6.s.s.6.6.s.s.6.",
"6.s.s.s.s.s.s.6.6.s.6.6.6.6.s.6.6.s.s.s.s.s.6.1   s.6.6.6.6.s.k 8   > s.s.s.s.6.6.l o 4.6.6.s.6.6.s.s.s.s.s.s.6.6.s.6.6.6.6.s.6.",
"6.s.s.s.s.s.s.6.6.s.6.6.6.6.s.6.6.s.s.s.s.s.O.< < s.6.6.6.6.s.6.-.X 7.s.s.s.s.6.6 y * & 6.6.s.6.6.s.s.s.s.s.s.6.6.s.6.6.6.6.s.6.",
"6.s.s.s.s.s.s.6.6.s.6.s.s.6.s.6.6.s.s.s.s.s.B < G s.6.s.s.6.s.+.U % a.s.s.s.s.6.Q 5.& o s.6.s.6.6.s.s.s.s.s.s.6.6.s.6.s.s.6.s.6.",
"6.s.s.s.s.s.s.6.6.s.s.6.6.s.s.6.6.s.s.s.s.s.i   v s.s.6.6.s.s.6.P 8 s.s.s.s.s.6.6._ o 8 6.s.s.6.6.s.s.s.s.s.s.6.6.s.s.6.6.s.s.6.",
"6.s.s.s.s.s.s.6.6.s.6.s.s.6.s.6.6.s.s.s.s.s.$   T s.6.s.s.6.s.6. .p d.s.s.s.s.6.6.% o o 8 ( s.6.6.s.s.s.s.s.s.6.6.s.6.s.s.6.s.6.",
"6.s.s.s.s.s.s.6.6.s.s.s.s.s.s.6.6.s.s.s.s.s.@ @ >.s.s.s.s.s.s.6.G X     s.s.s.6.6.:.o X < =.s.6.6.s.s.s.s.s.s.6.6.s.s.s.s.s.s.6.",
"6.s.s.s.s.s.s.6.6.s.s.s.s.s.s.6.6.s.s.s.s._ @ i 6.s.s.s.s.s.I = 1   X X   s.s.6.6.s.s.a   =.s.6.6.s.s.s.s.s.s.6.6.s.s.s.s.s.s.6.",
"6.s.s.6.6.s.s.6.6.s.s.s.s.s.s.6.6.s.s.6.6.' 2 j 4.s.s.s.s.n $ q : ~ @.7     s.6.6.s.s.L 1 X s.6.6.s.s.6.6.s.s.6.6.s.s.s.s.s.s.6.",
"6.s.6.6.6.6.s.6.6.s.s.s.s.s.s.6.6.s.6.6.6.!   j ( s.s.s.r < @ 8 6.s.6.L     X.6.6.s.0.m - 1 * p 6.s.6.6.6.6.s.6.6.s.s.s.s.s.s.6.",
"6.s.6.6.6.6.s.6.6.s.s.s.s.s.s.6.6.s.6.6.6.& $ 6.6.s.s./ & 2 > 6.6.s.6.6.G o X 6.6.s.7.%.l   Q 6.6.s.6.6.6.6.s.6.6.s.s.s.s.s.s.6.",
"6.s.6.s.s.6.s.6.6.s.s.s.s.s.s.6.6.s.6.s.s.7 X 6.6.s.s.M < @ X.6.6.s.6.s.s.L   6.6.s.s.s.` o 0.6.6.s.6.s.s.6.s.6.6.s.s.s.s.s.s.6.",
"6.s.s.6.6.s.s.6.6.s.s.s.s.s.s.6.6.s.s.6.4.1 $ L 6.s.s...& 5 s.6.6.s.s.6.6.X   > 6.s.s.s.s.- > l 4.s.s.6.6.s.s.6.6.s.s.s.s.s.s.6.",
"6.s.6.s.s.6.s.6.6.s.s.s.s.s.s.6.6.s.6.s.<.X , 6.6.s.s.) X p s.6.6.s.6.s.s.6.X o 6.s.s.s.s.w.u p 6.s.6.s.s.6.s.6.6.s.s.s.s.s.s.6.",
"6.s.s.s.s.s.s.6.6.s.s.s.s.s.s.6.6.s.s.s.<.  * X.6.s.s.i 9 j s.6.6.s.s.s.s.s.B h 4.s.s.s.s.' 2 L 6.s.s.s.s.s.s.6.6.s.s.s.s.s.s.6.",
"6.s.s.s.s.s.s.6.6.s.s.s.s.s.s.6.6.s.s.s.8.  , 6.6.s.s.; 9 M s.6.6.s.s.s.s.s.> o ( s.s.s.s.s # r 6.s.s.s.s.s.s.6.6.s.s.s.s.s.s.6.",
"6.s.s.s.s.s.s.6.6.s.s.6.6.s.s.6.6.s.s.s.) X p 6.6.<.) X   2 | 6.6.s.s.s.s.$.i X  .s.s.6.6.B 1 - v s.s.s.s.s.s.6.6.s.s.6.6.s.s.6.",
"6.s.s.s.s.s.s.6.6.s.6.6.6.6.s.6.6.s.s.s.Z X , 6.6.s.6.> < % a.y 6.s.s.s.s.1.&   >.s.6.6.6.L / T 4.s.s.s.s.s.s.6.6.s.6.6.6.6.s.6.",
"6.s.s.s.s.s.s.6.6.s.6.6.6.6.s.6.6.s.s.s.i o B 6.6.s.x % o M s.6.n s.s.s.s.' & 0 6.s.6.6.6.X.U 4.6.s.s.s.s.s.s.6.6.s.6.6.6.6.s.6.",
"6.s.s.s.s.s.s.6.6.s.6.s.s.6.s.6.6.s.s.B g & l >.6.s.P   $ L s.4.J s.s.s.s._ 1 x 6.s.6.s.s.[   6.6.s.s.s.s.s.s.6.6.s.6.s.s.6.s.6.",
"6.s.s.s.s.s.s.6.6.s.s.6.6.s.s.6.6.s.s.i 9 O ` 6.6.s.@.9 2 ..i.6.6.s.s.s.s.M   P 6.s.s.6.6.U   d { s.s.s.s.s.s.6.6.s.s.6.6.s.s.6.",
"6.s.s.s.s.s.s.6.6.s.6.s.s.6.s.6.6.s.s.I 9 < 1.6.6.s.L $ $ H s.6.6.s.s.s.s.T o 4.6.s.6.s._ X   6 J a.s.s.s.s.s.6.6.s.6.s.s.6.s.6.",
"6.s.s.s.s.s.s.6.6.s.s.s.s.s.s.6.6.s.s.5 X   s.6.6.s.7.X $ s.s.6.6.s.s.s.s.p.# L 6.s.s.3.i H o { f g a.s.s.s.s.6.6.s.s.s.s.s.s.6.",
"6.s.s.s.s.s.s.6.6.s.s.s.s.s.s.6.6.s.w.-     s.6.6.s.s., 9 s.s.6.6.s.s.s.s.s.* 6.6.s.#.[ =.a.M  .u 5   L s.s.s.6.6.s.s.s.s.s.s.6.",
"6.s.s.6.6.s.s.6.6.s.s.s.s.s.s.6.6.s.V <   p w.6.6.s.s.o a.s.s.6.6.s.s.6.6.s.# 6.6.s.1.} s.s.s.6.&.| 5 u *.s.s.6.6.s.s.s.s.s.s.6.",
"6.s.6.6.6.6.s.6.6.s.s.s.s.s.s.6.6.s.0 & ; #.s.6.6.s.s.# s.s.s.6.6.s.6.6.6.6.X 4.6.a.s.s.s.s.s.6.6.s.6.4.6.6.s.6.6.s.s.s.s.s.s.6.",
";.;.;.;.;.;.;.;.;.;.;.;.;.;.;.;.] N @ % o ;.;.;.;.;.;.  ;.;.;.;.;.;.;.;.;.;.  c ;.;.;.;.;.;.;.;.;.;.;.;.;.;.;.;.;.;.;.;.;.;.;.;.",
"^ ^ ^ ^ ^ ^ ^ ^ ^ ^ ^ ^ ^ ^ ^ ^ W @ # C   ^ ^ ^ ^ ^ ^ + ^ ^ ^ ^ ^ ^ ^ ^ ^ ^   + ^ ^ ^ ^ ^ ^ ^ ^ ^ ^ ^ ^ ^ ^ ^ ^ ^ ^ ^ ^ ^ ^ ^ ^ ",
"^ ^ ^ ^ ^ ^ ^ ^ ^ ^ ^ ^ ^ ^ ^ ^ ^ t e ^ < ^ ^ ^ ^ ^ ^ . ^ ^ ^ ^ ^ ^ ^ ^ ^ ^ ^ ^ ^ ^ ^ ^ ^ ^ ^ ^ ^ ^ ^ ^ ^ ^ ^ ^ ^ ^ ^ ^ ^ ^ ^ ^ ",
"^ ^ ^ ^ ^ ^ ^ ^ ^ ^ ^ ^ ^ ^ ^ ^ ^ ^ ^ ^ b ^ ^ ^ ^ ^ ^ + ^ ^ ^ ^ ^ ^ ^ ^ ^ ^ ^ ^ ^ ^ ^ ^ ^ ^ ^ ^ ^ ^ ^ ^ ^ ^ ^ ^ ^ ^ ^ ^ ^ ^ ^ ^ "
};
