/* XPM */
static char *_5f01f0c14b14cfabed6f37d936e4769njC3Lzl60v1P8xlS[] = {
/* columns rows colors chars-per-pixel */
"32 32 198 2 ",
"   c None",
".  c #040A0F",
"X  c #0E100F",
"o  c #060E15",
"O  c #1A1D1D",
"+  c #061E2B",
"@  c #0B1F2C",
"#  c #081C27",
"$  c #06212F",
"%  c #09232F",
"&  c #0C2B3B",
"*  c #1D2C32",
"=  c #222424",
"-  c #282C31",
";  c #2D3334",
":  c #2E363B",
">  c #323536",
",  c #333639",
"<  c #333A3C",
"1  c #3C3E3E",
"2  c #0F374A",
"3  c #113444",
"4  c #133749",
"5  c #133B4E",
"6  c #233F4D",
"7  c #273B41",
"8  c #3B3F42",
"9  c #373F41",
"0  c #0C435F",
"q  c #194558",
"w  c #294D4E",
"e  c #3C4143",
"r  c #354348",
"t  c #2D5657",
"y  c #144B66",
"u  c #0E506D",
"i  c #0F4F70",
"p  c #0D5576",
"a  c #185276",
"s  c #084566",
"d  c #295669",
"f  c #245A74",
"g  c #3F606E",
"h  c #27617B",
"j  c #3F6477",
"k  c #217972",
"l  c #286965",
"z  c #444E4F",
"x  c #464A4B",
"c  c #4E4F50",
"v  c #4F585B",
"b  c #47535A",
"n  c #525455",
"m  c #555859",
"M  c #5D6363",
"N  c #5D6769",
"B  c #5E6B6C",
"V  c #486B7C",
"C  c #536A74",
"Z  c #666C6E",
"A  c #66696B",
"S  c #657072",
"D  c #6B7476",
"F  c #6E7C7E",
"G  c #64787C",
"H  c #727C7E",
"J  c #727474",
"K  c #0E6185",
"L  c #0F6388",
"P  c #1E6685",
"I  c #156583",
"U  c #0F6A95",
"Y  c #0F6699",
"T  c #1B759B",
"R  c #2E6986",
"E  c #276785",
"W  c #366F88",
"Q  c #38728D",
"!  c #256C90",
"~  c #27779A",
"^  c #397A9A",
"/  c #1979A8",
"(  c #177AA7",
")  c #136DB9",
"_  c #1072B0",
"`  c #247CA0",
"'  c #49798C",
"]  c #497D93",
"[  c #467E97",
"{  c #6E7C80",
"}  c #647980",
"|  c #707B81",
" . c #1C9088",
".. c #32958F",
"X. c #2F9892",
"o. c #319891",
"O. c #1BA89E",
"+. c #0880AE",
"@. c #0783B2",
"#. c #0C85BB",
"$. c #058BBD",
"%. c #0C89BF",
"&. c #0B85B3",
"*. c #1386B9",
"=. c #2D82AA",
"-. c #3489AC",
";. c #3A83A3",
":. c #2A8DBA",
">. c #318DB4",
",. c #14AFA3",
"<. c #19B1A5",
"1. c #488987",
"2. c #568284",
"3. c #44819D",
"4. c #7D898C",
"5. c #798386",
"6. c #7A8E97",
"7. c #728992",
"8. c #658898",
"9. c #488CAB",
"0. c #4B97B9",
"q. c #5A87A3",
"w. c #6591A5",
"e. c #7C98B1",
"r. c #7AA7B8",
"t. c #15C6B8",
"y. c #0E8BC4",
"u. c #0D8DC8",
"i. c #0B93CD",
"p. c #079AD9",
"a. c #0B9DDC",
"s. c #0894D2",
"d. c #1C9CD4",
"f. c #1297D3",
"g. c #2394C7",
"h. c #0CA1DE",
"j. c #36A1CE",
"k. c #32A5D9",
"l. c #28A5DD",
"z. c #079EE1",
"x. c #06A2E6",
"c. c #0AA6EC",
"v. c #0AA6EA",
"b. c #1DA6E3",
"n. c #07AAF2",
"m. c #0AAEF5",
"M. c #05AEFB",
"N. c #09A7F1",
"B. c #04B0FC",
"V. c #5B94C6",
"C. c #4EA2C8",
"Z. c #0BDECC",
"A. c #10D6C6",
"S. c #848B8C",
"D. c #888B8C",
"F. c #808384",
"G. c #818D90",
"H. c #869296",
"J. c #8C9293",
"K. c #8D9A9E",
"L. c #859298",
"P. c #949595",
"I. c #959A9B",
"U. c #989B9C",
"Y. c #849CA7",
"T. c #9AA2A4",
"R. c #9CA7AB",
"E. c #95ACB5",
"W. c #97ADB9",
"Q. c #99AEB9",
"!. c #9DB1BB",
"~. c #89A3B6",
"^. c #A2A3A3",
"/. c #A4A7A8",
"(. c #A5AAAB",
"). c #ACACAD",
"_. c #AFB0AF",
"`. c #ACB2B3",
"'. c #ADB8BD",
"]. c #A5B4B8",
"[. c #B2B3B4",
"{. c #BBBCBC",
"}. c #B4B9BA",
"|. c #BFC0BF",
" X c #92ACC2",
".X c #ABBCC2",
"XX c #B4BFC1",
"oX c #B7C1C4",
"OX c #BBC6C8",
"+X c #BFC0C0",
"@X c #C3C4C4",
"#X c #C4C7C9",
"$X c #C4CBCC",
"%X c #CBCDCD",
"&X c #C6C8C7",
"*X c #CFD1D1",
"=X c #D2D4D5",
"-X c #E9EAEA",
/* pixels */
"                                                                ",
"                                                                ",
"                                                                ",
"                                                                ",
"              {.).                              {.              ",
"              ^.).            %XoX              U.{.            ",
"            [.S.[.          OX0./ r.            (.J.            ",
"          [.c e {.      @X!.g.i o *.0.XX        T.O P.          ",
"          P.= > P.    @X&X` U o . @ f.8.%X{.    I.X n [.        ",
"        |.P.Z 1 ^.{.{.^.-X^ ~ R R R =.Y.-X{.{.^.^.O D.(.        ",
"        P.5.Z A ^.F./.Z H H..X.X.X.X].5.H H {.Z (.m D D.).      ",
"    %XH 7 I T ~ g Y.C d 6.W.E.E.E.E.W.E.C f 6.7.h ~ T q e (.    ",
"    _.8 ( i.y q 5 4 3 3 & & & & & & & & & 2 3 4 5 q L a.f z %X  ",
"    m e %.%.; N z 7 , , , ; ; - - - ; ; > , ; w v M y n.P ; ).  ",
"  ^., e y.%.: F } O. .t 9 e e e e e e e r k ,.o.F S y M.P ; M %X",
"  [.x e u.y.: { F 1.t.Z.,.r < e e 9 9 l A.Z.<.G F S a M.P ; J   ",
"  {.c e u.p.6 F F F G 1...F S v b N H 2.X.2.F F H B K B.P ; P.  ",
"    P.e y.M.*.' F F H F { { { F F F { F H | { H G W p.B.E 9 @X  ",
"    ).e y.m.C.d.' G F H { { { { { { { | | { F } :.j.k.M.h e @X  ",
"    `.1 / c.l.c.f.:.-.;.3.3.] ] ] ] ] ] [ ;.-.g.v.b.b.a.d x     ",
"    {.D.e 6 9.U #.i.p.z.x.x.c.N.N.N.N.N.c.x.z.s.%.T V * m [.    ",
"        @X@X/.5 p i p 0 @ # + + $ $ $ % & s p u K r @X{.+X      ",
"            e.Y $.i.B.m.b H H D D D H Z ! M.M.#.@.a R.          ",
"            V._ $.i.B.B.j S H.K.K.K.5.S / B.B.&.@.)  X          ",
"          #X~.^ $.u.M.B.Q (.H.G.K.4.].S.y.B.B.&.+.q.'.          ",
"              oX;.y.B.B.=.].XXT.4.'.$X4.h.M.B.( w.%X            ",
"                *Xr.d.B.g.(.OXT.XXR.XXL.m.m.>..X                ",
"                    #Xr.9.@X}.I.T.(.}.].C.Q.=X                  ",
"                        &X    {.).&X  #X                        ",
"                                                                ",
"                                                                ",
"                                                                "
};
