/* XPM */
static char *_867a5f23d3e41a3ff9cabde451ccf3dvYFrc3RgG0ugzzB1[] = {
/* columns rows colors chars-per-pixel */
"18 18 173 2 ",
"   c black",
".  c #CACACA",
"X  c #5F5F5F",
"o  c #CDCDCD",
"O  c #C2C3C3",
"+  c #AAABAB",
"@  c #CECECE",
"#  c None",
"$  c #97B1B8",
"%  c #CBCBCB",
"&  c #B3B4B4",
"*  c #C3C4C5",
"=  c #848484",
"-  c #1C1D1E",
";  c #BBBCBC",
":  c #767676",
">  c #BDBEBE",
",  c #0FA6E2",
"<  c #020303",
"1  c #0D3954",
"2  c #0FABED",
"3  c #BEBFBF",
"4  c #444545",
"5  c #C1C2C2",
"6  c #171A1A",
"7  c #898A8A",
"8  c #A9ABAB",
"9  c #767C7D",
"0  c #DADBDB",
"q  c #D3D5D5",
"w  c #7B8081",
"e  c #9CA9AF",
"r  c #A7B9BF",
"t  c #9FAEB2",
"y  c #7B8483",
"u  c #D0D2D2",
"i  c #D9DADA",
"p  c #747879",
"a  c #A8AAAA",
"s  c #A9AAAA",
"d  c #1A6285",
"f  c #107099",
"g  c #115B7B",
"h  c #11536F",
"j  c #144761",
"k  c #12465F",
"l  c #12475F",
"z  c #124760",
"x  c #114660",
"c  c #124A64",
"v  c #105673",
"b  c #105B7E",
"n  c #0E668C",
"m  c #166487",
"M  c gray67",
"N  c #989898",
"B  c #2A2B2B",
"V  c #0E7FB2",
"C  c #1D2428",
"Z  c #6E7B81",
"A  c #246D68",
"S  c #394242",
"D  c #3B4143",
"F  c #3B4044",
"G  c #3C4045",
"H  c #3D3F44",
"J  c #3C4144",
"K  c #207772",
"L  c #6E7B7E",
"P  c #1F2326",
"I  c #088AC4",
"U  c #2D2F2F",
"Y  c #181718",
"T  c #4A4F50",
"R  c #0E83BB",
"E  c #1A2833",
"W  c #6E7C7E",
"Q  c #4E807F",
"!  c #0BDBC9",
"~  c #575C5E",
"^  c #363B3E",
"/  c #434849",
"(  c #5E6365",
")  c #0CDBCA",
"_  c #4F8281",
"`  c #707C7F",
"'  c #1B252B",
"]  c #616363",
"[  c #4F5252",
"{  c #0E83BA",
"}  c #104A65",
"|  c #6E7C7D",
" . c #6F7C7F",
".. c #5C7477",
"X. c #727C80",
"o. c #647173",
"O. c #707D7F",
"+. c #727E81",
"@. c #5B7476",
"#. c #707C80",
"$. c #113E52",
"%. c #098BC0",
"&. c #505252",
"*. c #989999",
"=. c #0F82B9",
"-. c #77A9C2",
";. c #2C88B0",
":. c #6A7880",
">. c #717D80",
",. c #6E7C80",
"<. c #6E7B83",
"1. c #707B81",
"2. c #717B81",
"3. c #6C7B7D",
"4. c #2688B5",
"5. c #7EAABC",
"6. c #0E83B7",
"7. c #9C9D9E",
"8. c gray75",
"9. c #575859",
"0. c #9AAEB8",
"q. c #0B4E71",
"w. c #0A72A5",
"e. c #098ABF",
"r. c #0C96D1",
"t. c #0B9FE4",
"y. c #0CA2E7",
"u. c #0BA1E5",
"i. c #0B94D6",
"p. c #0A80B7",
"a. c #0A5A7F",
"s. c #97ABB6",
"d. c #595B5C",
"f. c #BCBCBC",
"g. c #93A9B9",
"h. c #058BC1",
"j. c #04B1FB",
"k. c #227FAB",
"l. c #8F9B9D",
"z. c #869194",
"x. c #869295",
"c. c #8D999B",
"v. c #257CA8",
"b. c #04AFFF",
"n. c #048BBA",
"m. c #92A7B6",
"M. c #A1B3C0",
"N. c #068BB8",
"B. c #06AEFC",
"V. c #0D92CC",
"C. c #AEBABC",
"Z. c #889497",
"A. c #838E91",
"S. c #0B91CB",
"D. c #06B0FC",
"F. c #058BBF",
"G. c #A1B2BD",
"H. c gray84",
"J. c #2791C3",
"K. c #07AEFB",
"L. c #B2BABC",
"P. c #A4AFB2",
"I. c #AFBBBD",
"U. c #B5BFC0",
"Y. c #08AFF7",
"T. c #2892BF",
"R. c #CBCCCC",
"E. c #DEDFDE",
"W. c #646565",
"Q. c #AEAFB0",
"!. c #CDCECE",
"~. c #757576",
"^. c #DBDCDB",
/* pixels */
"                                    ",
"                                    ",
"        .       X         o         ",
"      O +     @ # $ %     & *       ",
"    = - ; : > , < 1 2 3 4 5 6 7     ",
"    8 9 0 q w e r r t y u i p a     ",
"  s d f g h j k l z x c v b n m M   ",
"N B V C Z A S D F G H J K L P I U   ",
"Y T R E W Q ! ~ ^ / ( ) _ ` ' I ]   ",
"  [ { } |  ...X.o.O.+.@.#.O.$.%.&.  ",
"  *.=.-.;.:.>.,.,.<.1.2.3.4.5.6.7.  ",
"  8.9.0.q.w.e.r.t.y.u.i.p.a.s.d.f.  ",
"      g.h.j.k.l.z.x.c.v.b.n.m.      ",
"      M.N.B.V.C.Z.A.C.S.D.F.G.      ",
"        H.J.K.L.P.I.U.Y.T.R.        ",
"            E.W.Q.!.~.^.            ",
"                                    ",
"                                    "
};
