/* XPM */
static char *aea78cb233384b71a22ef3350d9078ecLWbOLE4XYkfrJdzc[] = {
/* columns rows colors chars-per-pixel */
"64 64 5 1 ",
"  c #9A0000",
". c #968E3C",
"X c #A19A49",
"o c #A8A65E",
"O c #B6B461",
/* pixels */
"oooooooooooooooooooooooooooooooooooooooooooooooooooooooooooooooo",
"oOOOOOOooOOOOOOooOOOOOOooOOOOOOooOOOOOOooOOOOOOooOOOOOOooOOOOOOo",
"oOOOOOOooOOooOOooOOOOOOooOOooOOooOOOOOOooOOooOOooOOOOOOooOOooOOo",
"oOOOOOOooOooooOooOOOOOOooOooooOooOOOOOOooOooooOooOOOOOOooOooooOo",
"oOOOOOOooOooooOooOOOOOOooOooooOooOOOOOOooOooooOooOOOOOOooOooooOo",
"oOOOOOOooOoOOoOooOOOOOOooOoOOoOooOOOOOOooOoOOoOooOOOOOOooOoOOoOo",
"oOOOOOOooOOooOOooOOOOOOooOOooOOooOOOOOOooOOooOOooOOOOOOooOOooOOo",
"oOOOOOOooOoOOoOooOOOOOOooOoOOoOooOOOOOOooOoOOoOooOOOOOOooOoOOoOo",
"oOOOOOOooOOOOOOooOOOOOOooOOOOOOooOOOOOOooOOOOOOooOOOOO   OOOOOOo",
"oOOOOOOooOOOOOOooOOOOOOooOOOOOOooOOOOOOooOOOOOOooOOOOO    OOOOOo",
"oOOooOOooOOOOOOooOOooOOooOOOOOOooOOooOOooOOOOOOooOOooO    OOOOOo",
"oOooooOooOOOOOOooOooooOooOOOOOOooOooooOooOOOOOOooOoooo     OOOOo",
"oOooooOooOOOOOOooOooooOooOOOOOOooOooooOooOOOOOOooOooooO     OOOo",
"oOoOOoOooOOOOOOooOoOOoOooOOOOOOooOoOOoOooOOOOOOooOoOOoO     OOOo",
"oOOooOOooOOOOOOooOOooOOooOOOOOOooOOooOOooOOOOOOo   ooOOo     OOo",
"oOoOOoOooOOOOOOooOoOOoOooOOOOOOooOoOOoOooOOOOOOo    OoOoo    OOo",
"oOOOOOOooOOOOOOooOOOOOOooOOOOOOooOOOOOOooOOOOOOo     OOoo     Oo",
"oOOOOOOooOOOOOOooOOOOOOooOOOOOOooOOOOOOooOOOOOOoo     OooO    Oo",
"oOOOOOOooOOooOOooOOOOOOooOOooOOooOOOOOOooOOooOOoo     OooO    Oo",
"oOOOOOOooOooooOooOOOOOOooOooooOooOOOOOOooOooooOooO     ooOooooOo",
"oOOOOOOooOooooOooOOOOOOooOooooOooOOOOOOoo   ooOooOO     oOooooOo",
"oOOOOOOooOoOOoOooOOOOOOooOoOOoOooOOOOOOoo     OooOOO    oOoOOoOo",
"oOOOOOOooOOooOOooOOOOOOooOOooOOooOOOOOOo        oOOO     OOo    ",
"oOOOOOOooOoOOoOooOOOOOOooOoOOoOooOOOOOOo          OOO    OoO    ",
"oOOOOOOooOOOOOOooOOOOOOooOOOOOOooOOOOOOo            O    OOO    ",
"oOOOOOOooOOOOOOooOOOOOOooOOOOOOooOOOOOOo                 OOOOOOo",
"oOOooOOooOOOOOO        ooOOOOOOooOOooOOoo      o          OOOOOo",
"oOooooOooOOOO           oOOOOOOooOooooOooO       O        OOOOOo",
"oOooooOooOOO            oOOOOOOooOoo   ooOO       o       OOOOOo",
"oOoOOoOo          oO     OOOOOOooOoO    oOOO       OO     OOOOOo",
"oOOooOO         oOOoo    OOOOOOooOOo     OOOOO      oOOooOOOOOOo",
"oOoOO          ooOoOO    OOOOOOooOoO      OOOOO     OoOooOOOOOOo",
"oOOO       OOOOooOOOOO   OOOOOOooOOOO      OOOOo    OOOooOOOOOOo",
"oOOO     OOOOOOooOOOOO   OO    ooOOOOO      OOOoo    OOooOOOOOOo",
"oOOO    oOOooOOooOOOOO   OO    ooOOOOOO      OOoo    OOooOOooOOo",
"oOOO    oOooooOooOOOOO   Oo     oOOOOOOo     oOoo     OooOooooOo",
"oOOO    oOooooOooOOOO    Ooo     OOOOOOoo     OooO    OooOooooOo",
"oOOO    oOoOOoOooOOO     OoO     OOOOOOooO    OooO    OooOoOOoOo",
"oOOO     OOooOOooOO     oOOoo    OOOOOOooOO   OooOO   OooOOooOOo",
"oOOOO     oOOoOooO      oOoOOo    OOOOOooOo   OooOO   OooOoOOoOo",
"oOOOOO     OOOOooO     ooOOOOO    OOOOOooOO   OooOOO  OooOOOOOOo",
"oOOOOOO      OOoo           OOO    OOOOooOO   OooOOO  OooOOOOOOo",
"oOOooOOo     OOoo           OOO      OOooO    OooOOo  OooOOOOOOo",
"oOooooOoo     O             OOOo     oOo      OooOoo  OooOOOOOOo",
"oOooooOooO          ooOoo    OOoo            OOooOoo  OooOOOOOOo",
"oOoOOoOooOO         OoOoo     OooO           OOooOoO  OooOOOOOOo",
"oOOooOOooOO       OooOOooO     ooOO        OOOOooOOo  OooOOOOOOo",
"oOoOOoOooOOO   ooOoOOoOooO      oOoO      OOOOOooOoOO OooOOOOOOo",
"oOOOOOOooOOO    oOOOOOOooOO     oOOOOOO   OOOOOooOOOO OooOOOOOOo",
"oOOOOOOooOOO    oOOOOOOooOOOO     OOOOOo  OOOOOooOOO  OooOOOOOOo",
"oOOOOOOooOOo     OOOOOOooOOoo     OOOOOo  OooOOooOOOO OooOOooOOo",
"oOOOOOOooOooo    OOOOOOooOooo     OOOOOo  ooooOooOOOO OooOooooOo",
"oOOOOOOooOooo     OOOOOooOoooo   OOOOOOo  ooooOooOOOO OooOooooOo",
"oOOOOOOooOoOOo     OOOOooOoOOo    OOOOOo  oOOoOooOOOOOOooOoOOoOo",
"oOOOOOOooOOooO      OOOooOOooO    OOOOOo  OooOOooOOOOOOooOOooOOo",
"oOOOOOOooOoOOoO      OOooOoOOo    OOOOOo  oOOoOooOOOOOOooOoOOoOo",
"oOOOOOOooOOOOOOo     OOooOOOOO    OOOOOo  OOOOOooOOOOOOooOOOOOOo",
"oOOOOOOooOOOOOOoo    OOooOOOOO   OOOOOOo   OOOOooOOOOOOooOOOOOOo",
"oOOooOOooOOOOOOooO   OOooOOOOOO oOOooOOoo  OOOOooOOooOOooOOOOOOo",
"oOooooOooOOOOOOooO   oOooOOOOOO oOooooOoo  OOOOooOooooOooOOOOOOo",
"XXXXXXXXXXXXXXXXXX  XXXXXXXXXXX XXXXXXXXXX XXXXXXXXXXXXXXXXXXXXX",
"...................  .......... .......... .....................",
"...................  ..........  ......... .....................",
".................... .........   ..............................."
};
